# AST/ASF file generated using VICON BodyLanguage
# -----------------------------------------------
:version 1.10
:name VICON
:units
  mass 1.0
  length 0.45
  angle deg
:documentation
   .ast/.asf automatically generated from VICON data using
   VICON BodyBuilder and BodyLanguage model FoxedUp or BRILLIANT.MOD
:root
   order TX TY TZ RX RY RZ
   axis XYZ
   position 0 0 0  
   orientation 0 0 0 
:bonedata
  begin
     id 1 
     name lhipjoint
     direction 0.671379 -0.66392 0.329334 
     length 2.38647 
     axis 0 0 0  XYZ
  end
  begin
     id 2 
     name lfemur
     direction 0.34202 -0.939693 0  
     length 6.48179  
     axis 0 0 20  XYZ
    dof rx ry rz
    limits (-160.0 20.0)
           (-70.0 70.0)
           (-60.0 70.0)
  end
  begin
     id 3 
     name ltibia
     direction 0.34202 -0.939693 0   
     length 6.86524   
     axis 0 0 20   XYZ
    dof rx
    limits (-10.0 170.0)
  end
  begin
     id 4 
     name lfoot
     direction 0.204886 -0.562919 0.800715   
     length 1.73031   
     axis -90 7.62852e-016 20   XYZ
    dof rx rz
    limits (-45.0 90.0)
           (-70.0 20.0)
  end
  begin
     id 5 
     name ltoes
     direction 1.53548e-011 -4.21841e-011 1   
     length 0.828161   
     axis -90 7.62852e-016 20   XYZ
    dof rx
    limits (-90.0 20.0)
  end
  begin
     id 6 
     name rhipjoint
     direction -0.662732 -0.670855 0.332775   
     length 2.3618  
     axis 0 0 0  XYZ 
  end
  begin
     id 7 
     name rfemur
     direction -0.34202 -0.939693 0   
     length 6.3025   
     axis 0 0 -20   XYZ
    dof rx ry rz
    limits (-160.0 20.0)
           (-70.0 70.0)
           (-70.0 60.0)
  end
  begin
     id 8 
     name rtibia
     direction -0.34202 -0.939693 0   
     length 6.8732   
     axis 0 0 -20   XYZ
    dof rx
    limits (-10.0 170.0)
 end
 begin
     id 9 
     name rfoot
     direction -0.173856 -0.477665 0.861168   
     length 1.54784  
     axis -90 -7.62852e-016 -20   XYZ
    dof rx rz
    limits (-45.0 90.0)
           (-20.0 70.0)
  end
  begin
     id 10 
     name rtoes
     direction -1.53562e-011 -4.21802e-011 1   
     length 0.759618   
     axis -90 -7.62852e-016 -20   XYZ
    dof rx
    limits (-90.0 20.0)
  end
  begin
     id 11 
     name lowerback
     direction -0.0278357 0.999497 -0.0151789   
     length 1.97203   
     axis 0 0 0   XYZ
    dof rx ry rz
    limits (-20.0 45.0)
           (-30.0 30.0)
           (-30.0 30.0)
  end
  begin
     id 12 
     name upperback
     direction -0.00360622 0.997542 0.0699804   
     length 1.94709   
     axis 0 0 0   XYZ
    dof rx ry rz
    limits (-20.0 45.0)
           (-30.0 30.0)
           (-30.0 30.0)
  end
  begin
     id 13 
     name thorax
     direction 0.00907706 0.997048 0.0762461   
     length 1.95722   
     axis 0 0 0   XYZ
    dof rx ry rz
    limits (-20.0 45.0)
           (-30.0 30.0)
           (-30.0 30.0)
  end
  begin
     id 14 
     name lowerneck
     direction -0.0481835 0.99872 -0.0153927   
     length 1.63078   
     axis 0 0 0   XYZ
    dof rx ry rz
    limits (-20.0 45.0)
           (-30.0 30.0)
           (-30.0 30.0)
  end
  begin
     id 15 
     name upperneck
     direction 0.0859716 0.979226 -0.183644   
     length 1.62591   
     axis 0 0 0   XYZ
    dof rx ry rz
    limits (-20.0 45.0)
           (-30.0 30.0)
           (-30.0 30.0)
  end
  begin
     id 16
     name head
     direction 0.0324821 0.997629 -0.0606773  
     length 1.64811  
     axis 0 0 0   XYZ
    dof rx ry rz
    limits (-20.0 45.0)
           (-30.0 30.0)
           (-30.0 30.0)
  end
  begin
     id 17 
     name lclavicle
     direction 0.939609 0.311019 0.142835  
     length 3.70647  
     axis 0 0 0   XYZ
    dof ry rz
    limits (-20.0 10.0)
           (0.0 20.0)
  end
  begin
     id 18 
     name lhumerus
     direction 1 -4.48963e-011 -1.59838e-027   
     length 4.59207   
     axis 180 -30 -90   XYZ
    dof rx ry rz
    limits (-60.0 90.0)
           (-90.0 90.0)
           (-90.0 90.0)
  end
  begin
     id 19
     name lradius
     direction 1 -4.48957e-011 -1.3483e-026   
     length 2.98109   
     axis 180 -30 -90   XYZ
    dof rx
    limits (-10.0 170.0)
  end
  begin
     id 20
     name lwrist
     direction 1 -4.48954e-011 -3.11579e-026   
     length 1.49055   
     axis 2.00652e-014 90 90   XYZ
    dof ry
    limits (-180.0 0.0)
 end
  begin
     id 21 
     name lhand
     direction 1 -4.4911e-011 -6.23158e-026   
     length 0.480203   
     axis 3.97628e-014 90 90   XYZ
    dof rx rz
    limits (-90.0 90.0)
           (-45.0 45.0)
  end
  begin
     id 22 
     name lfingers
     direction 1 -4.48893e-011 -1.24632e-025   
     length 0.387152   
     axis 7.95256e-014 90 90   XYZ
    dof rx
    limits (0.0 90.0)
  end
  begin
     id 23
     name lthumb
     direction 0.707107 -6.35013e-011 0.707107   
     length 0.555875   
     axis -90 45 2.85299e-015   XYZ
    dof rx rz
    limits (-45.0 45.0)
           (-45.0 45.0)
  end
  begin
     id 24 
     name rclavicle
     direction -0.950396 0.30392 0.0661859   
     length 3.70894  
     axis 0 0 0   XYZ 
    dof ry rz
    limits (-10.0 20.0)
           (-20.0 0.0)
  end
  begin
     id 25 
     name rhumerus
     direction -1 -4.48957e-011 -2.96677e-027  
     length 4.76508   
     axis 180 30 90   XYZ
    dof rx ry rz
    limits (-90.0 60.0)
           (-90.0 90.0)
           (-90.0 90.0)
  end
  begin
     id 26 
     name rradius
     direction -1 -4.48974e-011 -1.44501e-026   
     length 2.78902   
     axis 180 30 90   XYZ
    dof rx
    limits (-10.0 170.0)
  end
  begin
     id 27 
     name rwrist
     direction -1 -4.48978e-011 -3.11579e-026   
     length 1.39451   
     axis 2.00652e-014 -90 -90   XYZ
    dof ry
    limits (-180.0 0.0)
  end
  begin
     id 28
     name rhand
     direction -1 -4.48956e-011 -6.23158e-026   
     length 0.721303   
     axis 3.97628e-014 -90 -90   XYZ
    dof rx rz
    limits (-90.0 90.0)
           (-45.0 45.0)
  end
  begin
     id 29
     name rfingers
     direction -1 -4.4899e-011 -1.24632e-025   
     length 0.581533   
     axis 7.95256e-014 -90 -90   XYZ
    dof rx
    limits (0.0 90.0)
  end
  begin
     id 30
     name rthumb
     direction -0.707107 -6.34911e-011 0.707107   
     length 0.834968   
     axis -90 -45 -2.85299e-015   XYZ
    dof rx rz
    limits (-45.0 45.0)
           (-45.0 45.0)
  end
:hierarchy
  begin
    root lhipjoint rhipjoint lowerback
    lhipjoint lfemur
    lfemur ltibia
    ltibia lfoot
    lfoot ltoes
    rhipjoint rfemur
    rfemur rtibia
    rtibia rfoot
    rfoot rtoes
    lowerback upperback
    upperback thorax
    thorax lowerneck lclavicle rclavicle
    lowerneck upperneck
    upperneck head
    lclavicle lhumerus
    lhumerus lradius
    lradius lwrist
    lwrist lhand lthumb
    lhand lfingers
    rclavicle rhumerus
    rhumerus rradius
    rradius rwrist
    rwrist rhand rthumb
    rhand rfingers
  end

#!OML:ASF I:\salsa\salsa 7_09\Patient 1\Session 1\dancerfemale.ASF
:FULLY-SPECIFIED
:DEGREES
842
root 5.10713 15.4092 -0.0794108 436.532 -97.4992 -800.613
lowerback 15.0225 6.1561 -10.5204
upperback -6.09677 6.42039 2.48226
thorax -17.1942 4.22508 6.86721
lowerneck 6.50437 -5.37291 -16.0831
upperneck 17.3856 -9.99103 11.0755
head 5.50269 -5.67106 5.82222
rclavicle 3.65764e-014 -3.97569e-015
rhumerus -21.6558 4.87585 -93.6827
rradius 36.4046
rwrist 20.9879
rhand -8.79229 61.1372
rfingers 7.12502
rthumb 17.1464 31.8738
lclavicle 3.65764e-014 -3.97569e-015
lhumerus 6.77418 -13.907 56.8049
lradius 91.3705
lwrist 36.0782
lhand 18.9557 -321.891
lfingers 7.12502
lthumb 43.5611 782.153
rfemur -24.5753 -4.88138 8.50587
rtibia 70.6866
rfoot -21.8871 11.377
rtoes 30.1487
lfemur -8.91313 -0.548506 -35.5259
ltibia 38.6789
lfoot -25.3795 4.49406
ltoes 41.3165
843
root 5.095 15.4238 -0.0642226 439.728 -98.1013 -804.437
lowerback 15.8751 6.13286 -9.75564
upperback -5.82742 6.37728 1.83112
thorax -17.1633 4.04511 5.63456
lowerneck 6.32822 -5.41532 -16.4431
upperneck 18.1982 -10.141 11.1594
head 5.83267 -5.78066 5.89641
rclavicle -3.81667e-014 -2.38542e-014
rhumerus -20.1985 5.64142 -94.1943
rradius 36.4851
rwrist 20.8757
rhand -8.97412 60.426
rfingers 7.12502
rthumb 16.9713 31.1475
lclavicle -3.81667e-014 -2.38542e-014
lhumerus 7.91915 -12.969 57.0834
lradius 90.1126
lwrist 36.445
lhand 19.0946 -321.264
lfingers 7.12502
lthumb 43.6908 782.733
rfemur -25.8274 -4.71516 7.34052
rtibia 70.7923
rfoot -22.6581 9.84224
rtoes 30.0994
lfemur -7.3051 0.371444 -36.1435
ltibia 36.8947
lfoot -23.3752 3.80926
ltoes 41.2624
844
root 5.07376 15.4537 -0.0480829 443.31 -98.4904 -808.323
lowerback 16.3328 5.90624 -8.72504
upperback -5.6159 6.17299 1.24664
thorax -16.9054 3.7752 4.42463
lowerneck 5.97172 -5.45131 -16.5933
upperneck 19.1271 -10.1924 10.8619
head 6.19277 -5.84369 5.80831
rclavicle -2.3059e-014 -4.77083e-015
rhumerus -18.8526 6.8634 -94.6608
rradius 36.7022
rwrist 20.6927
rhand -9.39703 59.7869
rfingers 7.12502
rthumb 16.5642 30.4739
lclavicle -2.3059e-014 -4.77083e-015
lhumerus 8.8623 -11.7675 57.4688
lradius 88.9673
lwrist 36.551
lhand 19.3384 -320.978
lfingers 7.12502
lthumb 43.9183 782.935
rfemur -26.9427 -3.99123 6.55705
rtibia 69.8489
rfoot -23.1517 8.40356
rtoes 30.6373
lfemur -6.12308 1.07444 -36.5237
ltibia 35.3916
lfoot -22.7037 3.33875
ltoes 41.5946
845
root 5.04445 15.4765 -0.0324006 447.457 -98.6724 -812.393
lowerback 16.2481 5.48699 -7.53576
upperback -5.45988 5.81189 0.76364
thorax -16.3669 3.43615 3.34324
lowerneck 5.63903 -5.43476 -16.711
upperneck 19.9674 -10.1368 10.4431
head 6.50193 -5.86026 5.68158
rclavicle -3.93594e-014 -1.59028e-015
rhumerus -17.4816 8.07913 -95.0416
rradius 36.8367
rwrist 20.5386
rhand -10.1999 59.3644
rfingers 7.12502
rthumb 15.7912 29.9885
lclavicle -3.93594e-014 -1.59028e-015
lhumerus 9.49181 -10.4839 57.6284
lradius 88.1596
lwrist 36.4503
lhand 19.8993 -320.711
lfingers 7.12502
lthumb 44.4412 783.005
rfemur -28.06 -2.51829 6.11338
rtibia 68.0787
rfoot -23.6708 6.94798
rtoes 32.2399
lfemur -5.44316 1.37703 -36.6998
ltibia 34.1907
lfoot -23.4593 3.1361
ltoes 42.5461
846
root 5.00461 15.4861 -0.0298089 452.285 -98.8873 -817.057
lowerback 15.9227 5.07469 -6.47662
upperback -5.31837 5.43928 0.233903
thorax -15.7394 3.11218 2.30394
lowerneck 5.49728 -5.43848 -16.8611
upperneck 20.712 -10.1905 10.335
head 6.78004 -5.92425 5.66492
rclavicle -2.06736e-014 -1.03368e-014
rhumerus -16.1652 8.70929 -95.3408
rradius 36.9943
rwrist 20.4924
rhand -11.3715 59.1396
rfingers 7.12502
rthumb 14.6626 29.678
lclavicle -2.06736e-014 -1.03368e-014
lhumerus 10.1302 -9.40548 57.7721
lradius 87.5247
lwrist 36.1992
lhand 20.2382 -320.297
lfingers 7.12502
lthumb 44.7569 783.298
rfemur -28.9189 -0.904918 5.63244
rtibia 65.7054
rfoot -24.4286 5.95917
rtoes 33.4791
lfemur -4.86806 1.23738 -36.8689
ltibia 33.1322
lfoot -23.3629 2.68414
ltoes 43.7068
